REM DIRINDEX 1\2\5,1\2\6,1\2\7,1\2\8,1\3\9,1\3\10,1\3\11,1\4\12,1\4\13,1\4\14,1\4\15,1\4\16
REM DIRNAME cjc034,folder01,folder02,folder03,folder04,folder05,folder06,folder07,folder08,folder09,folder10,folder11,folder12,folder13,folder14,folder15
TITLE ""
FILE "1200_2_sec05_1497_1513.mp3" MP3
  TRACK 01 AUDIO
    TITLE "0:"
    INDEX 01 00:00:00
  TRACK 02 AUDIO
    TITLE "10:cjc034_03110"
    INDEX 01 00:00:13
  TRACK 03 AUDIO
    TITLE "0:"
    INDEX 01 00:01:13
  TRACK 04 AUDIO
    TITLE "9:cjc034_03111"
    INDEX 01 00:01:19
  TRACK 05 AUDIO
    TITLE "0:"
    INDEX 01 00:02:30
  TRACK 06 AUDIO
    TITLE "10:cjc034_03112"
    INDEX 01 00:03:15
  TRACK 07 AUDIO
    TITLE "0:"
    INDEX 01 00:04:25
  TRACK 08 AUDIO
    TITLE "9:cjc034_03113"
    INDEX 01 00:04:31
  TRACK 09 AUDIO
    TITLE "0:"
    INDEX 01 00:05:44
  TRACK 10 AUDIO
    TITLE "10:cjc034_03114"
    INDEX 01 00:06:30
  TRACK 11 AUDIO
    TITLE "0:"
    INDEX 01 00:07:35
  TRACK 12 AUDIO
    TITLE "9:cjc034_03115"
    INDEX 01 00:07:41
  TRACK 13 AUDIO
    TITLE "0:"
    INDEX 01 00:08:50
  TRACK 14 AUDIO
    TITLE "10:cjc034_03116"
    INDEX 01 00:09:32
  TRACK 15 AUDIO
    TITLE "0:"
    INDEX 01 00:11:42
  TRACK 16 AUDIO
    TITLE "9:cjc034_03117"
    INDEX 01 00:11:46
  TRACK 17 AUDIO
    TITLE "0:"
    INDEX 01 00:13:14
  TRACK 18 AUDIO
    TITLE "10:cjc034_03118"
    INDEX 01 00:13:71
  TRACK 19 AUDIO
    TITLE "0:"
    INDEX 01 00:14:74
  TRACK 20 AUDIO
    TITLE "9:cjc034_03119"
    INDEX 01 00:15:05
  TRACK 21 AUDIO
    TITLE "0:"
    INDEX 01 00:16:08
  TRACK 22 AUDIO
    TITLE "10:cjc034_03120"
    INDEX 01 00:16:65
  TRACK 23 AUDIO
    TITLE "0:"
    INDEX 01 00:18:23
  TRACK 24 AUDIO
    TITLE "9:cjc034_03121"
    INDEX 01 00:18:25
  TRACK 25 AUDIO
    TITLE "0:"
    INDEX 01 00:19:30
  TRACK 26 AUDIO
    TITLE "10:cjc034_03122"
    INDEX 01 00:20:10
  TRACK 27 AUDIO
    TITLE "0:"
    INDEX 01 00:22:13
  TRACK 28 AUDIO
    TITLE "9:cjc034_03123"
    INDEX 01 00:22:21
  TRACK 29 AUDIO
    TITLE "0:"
    INDEX 01 00:23:32
  TRACK 30 AUDIO
    TITLE "10:cjc034_03124"
    INDEX 01 00:24:14
  TRACK 31 AUDIO
    TITLE "0:"
    INDEX 01 00:26:36
  TRACK 32 AUDIO
    TITLE "9:cjc034_03125"
    INDEX 01 00:26:38
  TRACK 33 AUDIO
    TITLE "0:"
    INDEX 01 00:27:61
  TRACK 34 AUDIO
    TITLE "10:cjc034_03126"
    INDEX 01 00:28:43
  TRACK 35 AUDIO
    TITLE "0:"
    INDEX 01 00:29:56
  TRACK 36 AUDIO
    TITLE "9:cjc034_03127"
    INDEX 01 00:29:62
  TRACK 37 AUDIO
    TITLE "0:"
    INDEX 01 00:31:04
  TRACK 38 AUDIO
    TITLE "10:cjc034_03128"
    INDEX 01 00:31:63
  TRACK 39 AUDIO
    TITLE "0:"
    INDEX 01 00:34:06
  TRACK 40 AUDIO
    TITLE "9:cjc034_03129"
    INDEX 01 00:34:10
  TRACK 41 AUDIO
    TITLE "0:"
    INDEX 01 00:35:45
  TRACK 42 AUDIO
    TITLE "10:cjc034_03130"
    INDEX 01 00:36:25
  TRACK 43 AUDIO
    TITLE "0:"
    INDEX 01 00:38:57
  TRACK 44 AUDIO
    TITLE "9:cjc034_03131"
    INDEX 01 00:38:59
  TRACK 45 AUDIO
    TITLE "0:"
    INDEX 01 00:40:05
  TRACK 46 AUDIO
    TITLE "10:cjc034_03132"
    INDEX 01 00:40:64
  TRACK 47 AUDIO
    TITLE "0:"
    INDEX 01 00:43:19
  TRACK 48 AUDIO
    TITLE "9:cjc034_03133"
    INDEX 01 00:43:25
  TRACK 49 AUDIO
    TITLE "0:"
    INDEX 01 00:44:42
  TRACK 50 AUDIO
    TITLE "10:cjc034_03134"
    INDEX 01 00:45:28
  TRACK 51 AUDIO
    TITLE "0:"
    INDEX 01 00:47:32
  TRACK 52 AUDIO
    TITLE "9:cjc034_03135"
    INDEX 01 00:47:36
  TRACK 53 AUDIO
    TITLE "0:"
    INDEX 01 00:48:44
  TRACK 54 AUDIO
    TITLE "10:cjc034_03136"
    INDEX 01 00:49:29
  TRACK 55 AUDIO
    TITLE "0:"
    INDEX 01 00:51:60
  TRACK 56 AUDIO
    TITLE "9:cjc034_03137"
    INDEX 01 00:51:65
  TRACK 57 AUDIO
    TITLE "0:"
    INDEX 01 00:52:71
  TRACK 58 AUDIO
    TITLE "10:cjc034_03138"
    INDEX 01 00:53:57
  TRACK 59 AUDIO
    TITLE "0:"
    INDEX 01 00:57:19
  TRACK 60 AUDIO
    TITLE "9:cjc034_03139"
    INDEX 01 00:57:23
  TRACK 61 AUDIO
    TITLE "0:"
    INDEX 01 00:58:38
  TRACK 62 AUDIO
    TITLE "10:cjc034_03140"
    INDEX 01 00:59:10
  TRACK 63 AUDIO
    TITLE "0:"
    INDEX 01 01:01:15
  TRACK 64 AUDIO
    TITLE "9:cjc034_03141"
    INDEX 01 01:01:23
  TRACK 65 AUDIO
    TITLE "0:"
    INDEX 01 01:02:38
  TRACK 66 AUDIO
    TITLE "10:cjc034_03142"
    INDEX 01 01:03:22
  TRACK 67 AUDIO
    TITLE "0:"
    INDEX 01 01:04:29
  TRACK 68 AUDIO
    TITLE "9:cjc034_03143"
    INDEX 01 01:04:35
  TRACK 69 AUDIO
    TITLE "0:"
    INDEX 01 01:05:56
